<?xml version="1.0" encoding="UTF-8" standalone="no"?>
<svg xmlns="http://www.w3.org/2000/svg" width="893.098" height="256" fill="none" viewBox="0 0 83.728 24">
  <g fill="#9128bf">
    <path d="M7.706 22.342C9.814 23.448 10.867 24 12 24V12L.766 6.088a3.835 3.835 0 0 0-.048.08C0 7.385 0 8.9 0 11.93v.14c0 3.03 0 4.545.716 5.762.718 1.218 2.01 1.896 4.59 3.25l2.4 1.26z"/>
    <path d="m18.692 2.918-2.4-1.26C14.186.553 13.132 0 12 0c-1.134 0-2.186.552-4.294 1.658l-2.4 1.26C2.782 4.243 1.49 4.92.766 6.086L12 12l11.234-5.912c-.727-1.168-2.016-1.845-4.542-3.17Z" opacity=".7"/>
    <path d="M23.284 6.168a3.784 3.784 0 0 0-.05-.08L12 12v12c1.133 0 2.186-.552 4.294-1.658l2.4-1.26c2.58-1.355 3.872-2.032 4.59-3.25C24 16.615 24 15.1 24 12.072v-.14c0-3.03 0-4.546-.716-5.763Z" opacity=".5"/>
    <path d="m5.188 2.98.12-.062 1.791-.94 10.92 6.006 4.83-2.414c.165.186.309.384.435.598.18.305.314.629.415.99L18.9 9.557V13.2a.9.9 0 0 1-1.8 0v-2.743l-4.2 2.1v11.328A3.674 3.674 0 0 1 12 24c-.298 0-.592-.038-.9-.115V12.557L.302 7.157c.101-.36.236-.684.416-.989a3.78 3.78 0 0 1 .434-.598L12 10.994l4.063-2.031z"/>
  </g>
  <path d="M6.816 10.151c1.374.672 2.372 1.436 2.99 2.29.627.846.93 1.738.91 2.673-.011.554-.15 1.013-.417 1.376-.266.353-.7.528-1.304.525-.593.001-1.398-.248-2.414-.75l-.953-.468-.021 3.334L3.42 18.05V8.49zm-.135 1.635-1.024-.501-.018 2.86.736.362c.628.309 1.126.442 1.492.397.378-.048.57-.327.578-.838.013-.935-.575-1.697-1.764-2.28z" aria-label="P" style="font-weight:700;font-size:13.5px;-inkscape-font-specification:&quot;sans-serif Bold&quot;;fill:#fff;stroke-width:.09375;stroke-miterlimit:0;stroke-dasharray:.75,.09375"/>
  <text xml:space="preserve" x="26.273" y="16.266" style="font-weight:700;font-size:16.4062px;font-family:sans-serif;-inkscape-font-specification:&quot;sans-serif Bold&quot;;fill:#9128bf;stroke-width:.0937502;stroke-miterlimit:0;stroke-dasharray:.750002,.0937502;fill-opacity:1"><tspan x="26.273" y="16.266" style="font-size:16.4062px;stroke-width:.0937502;fill:#9128bf;fill-opacity:1">Polyzip</tspan></text>
</svg>
